. 
 
http://www.torrenting.com          :     Once & For all ;)


               www . Torrenting . Com 

(((((((((((((= Enjoy No RAR releases =))))))))))))))))))))


...................................NFO:....................................

.[IMG]http://i.imgur.com/2mcr9.png[/IMG]

 
TITLE: 

Footloose 2011 DVDRiP AC3 XViD - INSPiRAL

IMDB: 
 
http://www.imdb.com/title/tt1068242/


SOURCES:

VIDEO - Legend THANKS
AUDIO - Legend THANKS
SUBS  - None Add

STATS:

Video
ID                               : 0
Format                           : MPEG-4 Visual
Format profile                   : Advanced Simple@L5
Format settings, BVOP            : 2
Format settings, QPel            : No
Format settings, GMC             : No warppoints
Format settings, Matrix          : Default (MPEG)
Muxing mode                      : Packed bitstream
Codec ID                         : XVID
Codec ID/Hint                    : XviD
Duration                         : 1h 48mn
Bit rate                         : 1 863 Kbps
Width                            : 720 pixels
Height                           : 304 pixels
Display aspect ratio             : 2.35:1
Frame rate                       : 25.000 fps
Color space                      : YUV
Chroma subsampling               : 4:2:0
Bit depth                        : 8 bits
Scan type                        : Progressive
Compression mode                 : Lossy
Bits/(Pixel*Frame)               : 0.340
Stream size                      : 1.41 GiB (80%)
Writing library                  : XviD 64

Audio
ID                               : 1
Format                           : AC-3
Format/Info                      : Audio Coding 3
Mode extension                   : CM (complete main)
Codec ID                         : 2000
Duration                         : 1h 48mn
Bit rate mode                    : Constant
Bit rate                         : 448 Kbps
Channel(s)                       : 6 channels
Channel positions                : Front: L C R, Side: L R, LFE
Sampling rate                    : 48.0 KHz
Bit depth                        : 16 bits
Compression mode                 : Lossy
Stream size                      : 348 MiB (19%)
Alignment                        : Aligned on interleaves
Interleave, duration             : 40 ms (1.00 video frame)
Interleave, preload duration     : 512 ms



NOTES:

DVDR was nice but thought the contrast levels were a touch off,some video noise ....audio,well 5.1 what more do u want.
Right made a script to inc heavy noise aswell as sharpen,then dropped into vdub and tweaked the contrast / brightness levels
a touch and also slight tweak in the rgb eq ....nothing major.
Audio stripped remuxed...had to use a 1000ms offset otherwise it was oos ...so sorted that out.

Shit film,nice release .....enjoy :lol:


SCREENS:

[IMG]http://i.imgur.com/RLcf8.png[/IMG]
[IMG]http://i.imgur.com/9Tork.png[/IMG]
[IMG]http://i.imgur.com/JZDdo.png[/IMG]
[IMG]http://i.imgur.com/lGFiI.png[/IMG]
[IMG]http://i.imgur.com/n9vZY.png[/IMG]


GREETZ: 

Past,Present and Future

[IMG]http://i.imgur.com/2mcr9.png[/IMG]